<?xml version="1.0" encoding="UTF-8"?>
<svg id="Ebene_1" data-name="Ebene 1" xmlns="http://www.w3.org/2000/svg" viewBox="0 0 500 240">
  <defs>
    <style>
      .cls-1 {
        fill: #a8ad00;
      }

      .cls-2 {
        fill: #000848;
      }
    </style>
  </defs>
  <g>
    <path class="cls-2" d="M151.48,83.8c0,10.86-7.8,17.45-20.39,17.45-2.46,0-4.38-.12-6.06-.42v11.63h-8.88v-44.98h16.25c11.93,0,19.07,6.78,19.07,16.31ZM142.3,83.98c0-4.68-2.94-8.64-10.55-8.64h-6.72v17.75c1.62.3,3.54.42,5.88.42,8.34,0,11.39-3.9,11.39-9.54Z"/>
    <path class="cls-2" d="M158.57,90.01c0-12.79,9.55-22.52,22.46-22.52s22.52,9.72,22.52,22.52-9.55,22.46-22.52,22.46-22.46-9.78-22.46-22.46ZM194.97,90.01c0-8.39-5.9-14.7-13.95-14.7s-13.89,6.31-13.89,14.7,5.79,14.53,13.89,14.53,13.95-6.31,13.95-14.53Z"/>
    <path class="cls-2" d="M221.56,75.41h-10.55v-7.92h29.92v7.92h-10.49v37.06h-8.88v-37.06Z"/>
    <path class="cls-2" d="M275.9,104.47h-17.18l-3.32,8h-9.6l20.97-44.98h1.07l21.04,44.98h-9.66l-3.32-8ZM267.31,83.55l-5.75,13.87h11.44l-5.69-13.87Z"/>
    <path class="cls-2" d="M296.11,109.92v-7.81c2.08,1.45,5.09,2.89,8.97,2.89,6.08,0,8.56-3.07,8.56-6.02,0-2.49-1.45-4.51-4.8-6.13l-4.74-2.26c-4.86-2.43-7.99-5.9-7.99-10.88,0-7.06,6.19-12.21,16.09-12.21,3.65,0,6.49.75,7.93,1.56v7.81c-1.68-1.04-4.52-1.97-7.47-1.97-4.92,0-7.7,1.97-7.7,4.98,0,1.97,1.22,3.36,4.11,4.75l4.63,2.26c5.79,2.78,8.45,6.66,8.45,11.98,0,7.18-5.04,13.6-16.44,13.6-3.94,0-7.41-1.04-9.61-2.55Z"/>
    <path class="cls-2" d="M334.97,109.92v-7.81c2.09,1.45,5.1,2.89,8.97,2.89,6.08,0,8.57-3.07,8.57-6.02,0-2.49-1.45-4.51-4.8-6.13l-4.75-2.26c-4.86-2.43-7.99-5.9-7.99-10.88,0-7.06,6.19-12.21,16.09-12.21,3.65,0,6.48.75,7.93,1.56v7.81c-1.68-1.04-4.51-1.97-7.47-1.97-4.92,0-7.7,1.97-7.7,4.98,0,1.97,1.22,3.36,4.11,4.75l4.63,2.26c5.79,2.78,8.45,6.66,8.45,11.98,0,7.18-5.04,13.6-16.44,13.6-3.93,0-7.41-1.04-9.61-2.55Z"/>
    <path class="cls-2" d="M403.52,110.79c-2.32,1.27-5.51,1.68-8.46,1.68-12.87,0-22.72-9.68-22.72-22.49s9.91-22.49,22.84-22.49c2.96,0,6.03.41,8.35,1.56v8.11c-2.38-1.16-4.93-1.8-8.12-1.8-8.23,0-14.43,6.09-14.43,14.6s6.2,14.43,14.43,14.43c3.19,0,5.74-.52,8.12-1.68v8.06Z"/>
    <path class="cls-2" d="M415.24,90.01c0-12.79,9.55-22.52,22.46-22.52s22.51,9.72,22.51,22.52-9.55,22.46-22.51,22.46-22.46-9.78-22.46-22.46ZM451.65,90.01c0-8.39-5.91-14.7-13.95-14.7s-13.89,6.31-13.89,14.7,5.78,14.53,13.89,14.53,13.95-6.31,13.95-14.53Z"/>
  </g>
  <path class="cls-1" d="M10.14,30.04v82.4h82.4v-.03h.12v-43.48c10.03-3.98,15.83-12.34,15.83-23.87v-15.02H10.14ZM82.34,59.41c-.12.01-.24.02-.36.02-.07,0-1.01,0-1.01,0l-.03,41.41H21.75v-59.19h72.36c.3,1.18.45,2.41.45,3.69,0,1.62-.17,3.24-.6,4.8-.4,1.44-1.02,2.82-1.9,4.02s-2.06,2.27-3.36,3.06c-1.53.93-3.24,1.54-4.98,1.94-.46.1-.91.21-1.37.25Z"/>
  <g>
    <path class="cls-1" d="M124.12,139.06h-8.61v-3.19h20.67v3.19h-8.61v28.31h-3.44v-28.31Z"/>
    <path class="cls-1" d="M163.06,164.18v3.19h-20.12v-31.51h19.62v3.19h-16.34v9.87h15.46v3.15h-15.46v12.1h16.85Z"/>
    <path class="cls-1" d="M191.92,166.57c-1.93,1.01-4.24,1.39-6.68,1.39-9.24,0-16.43-7.06-16.43-16.34s7.18-16.22,16.47-16.22c2.44,0,4.7.42,6.64,1.34v3.36c-1.93-1.01-4.07-1.47-6.59-1.47-7.39,0-13.02,5.59-13.02,12.98s5.63,13.11,13.02,13.11c2.52,0,4.66-.46,6.59-1.47v3.32Z"/>
    <path class="cls-1" d="M226.7,135.87v31.51h-3.44v-15.21h-20.33v15.21h-3.44v-31.51h3.44v13.11h20.33v-13.11h3.44Z"/>
    <path class="cls-1" d="M263.2,135.87v31.67h-.71l-22.68-24.45v24.28h-3.4v-31.72h.67l22.73,24.32v-24.11h3.4Z"/>
    <path class="cls-1" d="M270.71,151.62c0-9.12,7.06-16.22,16.3-16.22s16.34,7.1,16.34,16.22-7.01,16.34-16.34,16.34-16.3-7.14-16.3-16.34ZM299.91,151.62c0-7.35-5.59-13.06-12.9-13.06s-12.81,5.71-12.81,13.06,5.5,13.15,12.81,13.15,12.9-5.75,12.9-13.15Z"/>
    <path class="cls-1" d="M326.54,164.18v3.19h-15.67v-31.51h3.45v28.31h12.22Z"/>
    <path class="cls-1" d="M329.1,151.62c0-9.12,7.06-16.22,16.3-16.22s16.34,7.1,16.34,16.22-7.01,16.34-16.34,16.34-16.3-7.14-16.3-16.34ZM358.3,151.62c0-7.35-5.59-13.06-12.9-13.06s-12.81,5.71-12.81,13.06,5.5,13.15,12.81,13.15,12.9-5.75,12.9-13.15Z"/>
    <path class="cls-1" d="M370.22,152.25c0,7.35,5.25,12.48,13.7,12.48,2.1,0,4.16-.5,5.54-1.01v-12.1h3.36v14.12c-1.22.88-4.91,2.23-9.07,2.23-10.33,0-17.01-6.64-17.01-15.71,0-9.75,7.23-16.85,18.19-16.85,3.4,0,6.55.8,8.44,1.81v3.28c-2.06-1.01-5.13-1.93-8.28-1.93-9.12,0-14.87,5.59-14.87,13.69Z"/>
    <path class="cls-1" d="M402.02,135.87h3.4v31.51h-3.4v-31.51Z"/>
    <path class="cls-1" d="M435.54,164.18v3.19h-20.12v-31.51h19.62v3.19h-16.34v9.87h15.46v3.15h-15.46v12.1h16.85Z"/>
    <path class="cls-1" d="M441.46,166.11v-3.32c1.47,1.05,4.03,2.06,6.93,2.06,5.21,0,7.77-2.69,7.77-5.84,0-2.52-1.56-4.5-4.58-6.05l-3.82-1.93c-3.49-1.76-5.8-4.03-5.8-7.52,0-4.66,4.2-8.11,10.75-8.11,2.35,0,4.62.59,5.63,1.18v3.28c-1.18-.67-3.44-1.34-5.59-1.34-4.54,0-7.22,2.1-7.22,5,0,2.18,1.47,3.53,3.99,4.83l3.82,1.93c4.07,2.02,6.22,4.83,6.22,8.61,0,4.87-3.61,9.07-11.05,9.07-2.86,0-5.55-.84-7.06-1.85Z"/>
  </g>
</svg>